<svg id="Layer_1" data-name="Layer 1" xmlns="http://www.w3.org/2000/svg" xmlns:xlink="http://www.w3.org/1999/xlink" viewBox="0 0 443.69 380.2"><defs><style>.cls-1,.cls-15,.cls-17,.cls-24,.cls-25,.cls-26{fill:none;}.cls-2{opacity:0.5;fill:url(#linear-gradient);}.cls-3{fill:#ebecf0;stroke:#ebecf0;}.cls-15,.cls-16,.cls-17,.cls-24,.cls-25,.cls-26,.cls-3,.cls-4{stroke-miterlimit:10;}.cls-15,.cls-16,.cls-17,.cls-3,.cls-4{stroke-width:1.33px;}.cls-4{fill:#f4f5f7;stroke:#dfe1e5;}.cls-16,.cls-5{fill:#dfe1e5;}.cls-6{fill:#e1c5b6;}.cls-7{fill:#172b4d;}.cls-8{clip-path:url(#clip-path);}.cls-9{fill:#8993a4;}.cls-10{clip-path:url(#clip-path-2);}.cls-11{fill:#253858;}.cls-12{fill:url(#linear-gradient-2);}.cls-13{fill:#344563;}.cls-14{fill:url(#linear-gradient-3);}.cls-15{stroke:#42526e;}.cls-15,.cls-16,.cls-17,.cls-24,.cls-25{stroke-linecap:round;}.cls-16{stroke:#0065ff;}.cls-17{stroke:url(#linear-gradient-4);}.cls-18{fill:#0065ff;}.cls-19{fill:url(#linear-gradient-5);}.cls-20{fill:#fff;}.cls-21{fill:#2684ff;}.cls-22{fill:#4c9aff;}.cls-23{fill:#b2d4ff;}.cls-24,.cls-25{stroke:#b2d4ff;}.cls-24{stroke-width:1.08px;}.cls-25{stroke-width:1.11px;}.cls-26{stroke:#4c9aff;stroke-width:0.52px;}.cls-27{fill:url(#linear-gradient-6);}.cls-28{fill:#f5e0cd;}.cls-29{fill:url(#linear-gradient-7);}.cls-30{fill:url(#linear-gradient-8);}.cls-31{opacity:0.35;}.cls-32{opacity:0.4;}</style><linearGradient id="linear-gradient" x1="189.39" y1="335.39" x2="275.14" y2="335.39" gradientUnits="userSpaceOnUse"><stop offset="0" stop-color="#e5e8ec" stop-opacity="0.1"/><stop offset="1" stop-color="#cfd4db"/></linearGradient><clipPath id="clip-path"><path class="cls-1" d="M286,256.51l6.73-1.43-.92-4.25-2.06,1a3,3,0,0,1-.8,2c-.86.82-2,.58-2.63,1.49A2.05,2.05,0,0,0,286,256.51Z"/></clipPath><clipPath id="clip-path-2"><path class="cls-1" d="M257.13,256h7.61v-4.83l-2.48.11a3.34,3.34,0,0,1-1.34,2.54c-1.07.67-2.32.12-3.21,1A2.23,2.23,0,0,0,257.13,256Z"/></clipPath><linearGradient id="linear-gradient-2" x1="275.01" y1="231.12" x2="292.48" y2="231.12" gradientUnits="userSpaceOnUse"><stop offset="0" stop-color="#172b4d"/><stop offset="1" stop-color="#344563"/></linearGradient><linearGradient id="linear-gradient-3" x1="246.84" y1="191.78" x2="284.16" y2="191.78" gradientUnits="userSpaceOnUse"><stop offset="0" stop-color="#36b37e"/><stop offset="0.77" stop-color="#57d9a3"/></linearGradient><linearGradient id="linear-gradient-4" x1="229.36" y1="66.63" x2="229.36" y2="9.34" gradientUnits="userSpaceOnUse"><stop offset="0" stop-color="#0065ff"/><stop offset="0.1" stop-color="#0065ff" stop-opacity="0.98"/><stop offset="0.22" stop-color="#0065ff" stop-opacity="0.92"/><stop offset="0.36" stop-color="#0065ff" stop-opacity="0.82"/><stop offset="0.51" stop-color="#0065ff" stop-opacity="0.68"/><stop offset="0.66" stop-color="#0065ff" stop-opacity="0.49"/><stop offset="0.83" stop-color="#0065ff" stop-opacity="0.27"/><stop offset="0.99" stop-color="#0065ff" stop-opacity="0.02"/><stop offset="1" stop-color="#0065ff" stop-opacity="0"/></linearGradient><linearGradient id="linear-gradient-5" x1="201.15" y1="253.3" x2="222.84" y2="231.62" gradientTransform="translate(0 -85)" gradientUnits="userSpaceOnUse"><stop offset="0" stop-color="#0052cc"/><stop offset="1" stop-color="#2684ff"/></linearGradient><linearGradient id="linear-gradient-6" x1="140.37" y1="15081.72" x2="188" y2="15081.72" gradientTransform="matrix(1, 0, 0, -1, 0, 15446.09)" xlink:href="#linear-gradient"/><linearGradient id="linear-gradient-7" x1="166.52" y1="15108.85" x2="181.68" y2="15108.85" gradientTransform="matrix(1, 0, 0, -1, 0, 15446.09)" gradientUnits="userSpaceOnUse"><stop offset="0.11" stop-color="#0065ff"/><stop offset="1" stop-color="#66a3ff"/></linearGradient><linearGradient id="linear-gradient-8" x1="18125.96" y1="15146.19" x2="18159.75" y2="15146.19" gradientTransform="translate(18315.25 15446.09) rotate(180)" gradientUnits="userSpaceOnUse"><stop offset="0" stop-color="#3384ff"/><stop offset="1" stop-color="#0057d8"/></linearGradient></defs><polygon class="cls-2" points="275.14 333.15 269.82 337.63 189.39 337.63 194.71 333.15 275.14 333.15"/><rect class="cls-3" x="100.13" y="256.56" width="80.43" height="80.43" transform="translate(-156.43 437.11) rotate(-90)"/><rect class="cls-4" x="79.96" y="256.56" width="80.43" height="80.43" transform="translate(-176.6 416.94) rotate(-90)"/><circle class="cls-5" cx="151.98" cy="328.34" r="1.99"/><rect class="cls-3" x="209.33" y="100.72" width="80.43" height="80.43" transform="translate(108.61 390.49) rotate(-90)"/><rect class="cls-4" x="189.39" y="100.72" width="80.43" height="80.43" transform="translate(88.67 370.55) rotate(-90)"/><circle class="cls-5" cx="198.03" cy="172.51" r="1.99"/><circle class="cls-5" cx="198.03" cy="109.37" r="1.99"/><circle class="cls-5" cx="261.18" cy="172.51" r="1.99"/><circle class="cls-5" cx="261.18" cy="109.37" r="1.99"/><circle class="cls-5" cx="151.98" cy="328.01" r="1.99"/><path class="cls-6" d="M277.36,167.56a2.18,2.18,0,0,0,.15,1.16c.26.61,1.06,2.49,1.68,2.35.29-.06.42-.58.45-.83.05-.5-.58-.81-.64-1.34a.78.78,0,0,0-.05-.33c-.05-.32-.08-.49-.15-.51s-.28.32-.51.32c-.38,0-.56-1.21-.78-1.19S277.37,167.46,277.36,167.56Z"/><path class="cls-6" d="M280.94,171.32c-.5.47-1.75.22-2.36-.52a2.19,2.19,0,0,1-.41-1.66c.08-.61.35-.67.55-1.3.43-1.34-.21-2.49.11-2.64.08,0,.22,0,.51.25a.3.3,0,0,1,.23-.11c.2,0,.32.37.38.54a23.55,23.55,0,0,1,.93,3.1C281.12,170.39,281.19,171.09,280.94,171.32Z"/><path class="cls-6" d="M280.84,167.05a3.78,3.78,0,0,1,.09,1.34c0,1.64.21,2.69.09,2.69s-.19-.32-.26-.5c-.5-1.48-1.29-4.6-.83-4.75C280.16,165.75,280.64,166.42,280.84,167.05Z"/><path id="_Clipping_Path_12" data-name=" Clipping Path 12" class="cls-7" d="M286,256.51l6.73-1.43-.92-4.25-2.06,1a3,3,0,0,1-.8,2c-.86.82-2,.58-2.63,1.49A2.05,2.05,0,0,0,286,256.51Z"/><g class="cls-8"><rect class="cls-9" x="285.92" y="255.31" width="7.11" height="0.47" transform="translate(-47.1 66.3) rotate(-12.09)"/></g><path id="_Clipping_Path_13" data-name=" Clipping Path 13" class="cls-7" d="M257.13,256h7.61v-4.83l-2.48.11a3.34,3.34,0,0,1-1.34,2.54c-1.07.67-2.32.12-3.21,1A2.23,2.23,0,0,0,257.13,256Z"/><g class="cls-10"><rect class="cls-9" x="256.99" y="255.44" width="7.9" height="0.52"/></g><path class="cls-11" d="M271.21,194.66a3.89,3.89,0,0,0,1.31-1.83,3.92,3.92,0,0,0-5.93-4.49,1.36,1.36,0,0,0-1.76.73,1.34,1.34,0,0,0,.28,1.45,1.26,1.26,0,0,0,.06.38,5.7,5.7,0,0,0,2.37,3.37Z"/><path class="cls-6" d="M268.48,198.82a4.49,4.49,0,0,0,4.29-.75,7.25,7.25,0,0,1-1.63-4.12l-3.61.61Z"/><path class="cls-6" d="M265.11,190.52a11.09,11.09,0,0,1-.06,1.41,5.14,5.14,0,0,1-.1.61,7.47,7.47,0,0,1-.48,1.59l.78.12.74,2.46a8.12,8.12,0,0,0,3.22,0c.9-.17,1.81-.35,2.21-1.05a3.85,3.85,0,0,0,.25-.77,4.42,4.42,0,0,1,.15-.48c.07-.19.17-.47.31-.8a2.34,2.34,0,0,1-1,.31,1.27,1.27,0,0,1-1-.2c-.4-.37-.12-1-.47-1.2a.48.48,0,0,0-.49.06c-.39.29-.21,1.27-.21,1.27h-.7a2.85,2.85,0,0,0-.44-1.23c-.39-.57-.73-.56-1-1.12s-.1-.86-.37-1.09S265.92,190.21,265.11,190.52Z"/><path class="cls-12" d="M279.63,209.58c.67,1.22,1.27,2.52,1.86,3.89a58.88,58.88,0,0,1,4.4,15.95c.79,1.83,1.57,3.78,2.3,5.85a124.27,124.27,0,0,1,4.29,16.56l-3.61.82-7.58-21.41c-.36-.76-.89-1.91-1.53-3.29-4.66-10.08-5.11-11.88-4.57-13.7C275.51,213.19,276.42,211.31,279.63,209.58Z"/><path class="cls-6" d="M246.19,180.36a2.07,2.07,0,0,1,.95.55c.42.44,1.77,1.8,1.43,2.29-.16.23-.64.16-.88.09-.45-.15-.49-.79-1-1a2.43,2.43,0,0,1-.26-.15c-.26-.17-.39-.24-.38-.31s.38-.13.45-.32c.11-.34-.85-.92-.75-1.1S246.1,180.34,246.19,180.36Z"/><path class="cls-6" d="M248.11,185.1c.62-.28.87-1.54.42-2.39a2.26,2.26,0,0,0-1.38-1c-.6-.15-.73.07-1.42,0-1.39-.1-2.22-1.14-2.49-.9-.06.06-.07.21,0,.57a.3.3,0,0,0-.19.16c-.06.19.22.44.36.56a26,26,0,0,0,2.51,2C247.18,184.88,247.8,185.25,248.11,185.1Z"/><path class="cls-13" d="M270.48,211.66a150.48,150.48,0,0,0-6.21,18.15c-1.75,6.4-2.41,15.57-3.3,22.15h4.16c.6-2.64,1.28-5.38,2.06-8.2,1.07-3.86,1.55-10.15,2.74-13.57,5.84-5.62,9.74-10.4,10.88-12.77.44-.91,1.21-2.5.67-4-.08-.25-.3-.67-.73-1.6s-.82-1.67-1.08-2.17a30.87,30.87,0,0,1-9.21,2Z"/><path class="cls-14" d="M261.88,203.4a17.42,17.42,0,0,0,4.89.13,51,51,0,0,0,1.52,5.67c.47,1.47,1,2.84,1.49,4.11a12.53,12.53,0,0,0,11.34-3.15,61.59,61.59,0,0,1-2.5-5.64c-.61-1.59-1.11-3.12-1.53-4.55a29.41,29.41,0,0,0,7.07-16.48,56.7,56.7,0,0,0-.81-5.92c-.55-2.69-1.14-5.22-1.81-7.61l-3.1,1.68c.14,1.45.3,2.93.49,4.45.41,3.18.41,3.18.78,6.45A18.31,18.31,0,0,1,278,189.2a15.88,15.88,0,0,1-4.33,5.8,15.44,15.44,0,0,1-8.33,3.36l0,0L257,198a8.92,8.92,0,0,1-1.46-.15,1.59,1.59,0,0,1-.65-.81l-.23-.58-5-13.52-2.77,2.22,5,15.39s.49.9.88,1A93.15,93.15,0,0,0,261.88,203.4Z"/><path class="cls-15" d="M229.36,77a4.46,4.46,0,0,0,1.56-8.65,2.3,2.3,0,0,1-1.56-2.14v-5"/><line class="cls-16" x1="204.15" y1="100.72" x2="229.36" y2="75.51"/><line class="cls-16" x1="254.61" y1="100.72" x2="229.4" y2="75.51"/><line class="cls-17" x1="229.36" y1="65.97" x2="229.36" y2="10"/><path class="cls-15" d="M229.36,77a4.47,4.47,0,0,1-4.46-4.47"/><rect class="cls-9" x="227.27" y="59.54" width="4.19" height="7.62" rx="2.09"/><circle class="cls-18" cx="231.74" cy="140.93" r="23.07"/><circle class="cls-19" cx="228.6" cy="140.86" r="23.15"/><path id="_Clipping_Path_" data-name=" Clipping Path " class="cls-20" d="M240.87,143v-4.22a1.12,1.12,0,0,0-1.09-1.13h-7.91v-7.89a1.13,1.13,0,0,0-1.13-1.13H226.5a1.13,1.13,0,0,0-1.14,1.12h0v7.88H217.5a1.13,1.13,0,0,0-1.14,1.13h0V143a1.14,1.14,0,0,0,1.12,1.14h7.89V152a1.12,1.12,0,0,0,1.12,1.14h4.22a1.13,1.13,0,0,0,1.11-1.15V144.1h7.89a1.1,1.1,0,0,0,1.16-1.07h0Z"/><circle class="cls-5" cx="88.83" cy="265.2" r="1.99"/><circle class="cls-5" cx="151.98" cy="265.2" r="1.99"/><circle class="cls-5" cx="88.83" cy="328.34" r="1.99"/><rect class="cls-3" x="274.98" y="256.56" width="80.43" height="80.43" transform="translate(18.43 611.97) rotate(-90)"/><rect class="cls-4" x="255.04" y="256.56" width="80.43" height="80.43" transform="translate(-1.51 592.03) rotate(-90)"/><circle class="cls-5" cx="326.83" cy="328.34" r="1.99"/><path class="cls-18" d="M307.27,272.64V320.9H282.83V272.64h24.44m1.57-1.56H281.26v51.38h27.58V271.08Z"/><rect class="cls-21" x="282.83" y="272.64" width="24.44" height="22.88"/><polygon class="cls-21" points="301.01 313.7 276.56 313.7 282.83 295.52 307.27 295.52 301.01 313.7"/><polygon class="cls-22" points="301.01 313.7 307.27 320.9 307.27 295.52 301.01 313.7"/><polygon class="cls-23" points="282.83 320.9 276.56 313.7 301.01 313.7 307.27 320.9 282.83 320.9"/><line class="cls-24" x1="295.05" y1="280.43" x2="295.05" y2="287.74"/><ellipse class="cls-25" cx="291.92" cy="304.61" rx="3.63" ry="2.61" transform="translate(-127.74 261.09) rotate(-40.3)"/><line class="cls-26" x1="282.83" y1="295.52" x2="307.27" y2="295.52"/><rect class="cls-4" x="254.81" y="256.56" width="80.43" height="80.43" transform="translate(-1.74 591.8) rotate(-90)"/><circle class="cls-5" cx="326.83" cy="328.01" r="1.99"/><circle class="cls-5" cx="263.68" cy="265.2" r="1.99"/><circle class="cls-5" cx="326.83" cy="265.2" r="1.99"/><circle class="cls-5" cx="263.68" cy="328.34" r="1.99"/><ellipse class="cls-27" cx="164.18" cy="364.37" rx="23.82" ry="3.27"/><path class="cls-28" d="M185.72,287.12c-.6-.11-1.08-1.15-.86-2a1.88,1.88,0,0,1,1-1.16c.48-.26.65-.1,1.22-.29,1.18-.38,1.69-1.45,1.92-1.3.07,0,.12.15.08.5a.28.28,0,0,1,.2.1c.09.16-.1.43-.19.56a23,23,0,0,1-1.76,2.3C186.49,286.73,186,287.18,185.72,287.12Z"/><path class="cls-28" d="M186.39,282.6a1.9,1.9,0,0,0-.71.67c-.28.47-1.16,1.92-.77,2.29.2.16.6,0,.79-.1.36-.22.26-.79.61-1.11l.2-.19c.19-.19.28-.29.26-.35s-.35,0-.46-.18.55-1,.43-1.12S186.49,282.56,186.39,282.6Z"/><path class="cls-28" d="M188.76,284.8a3.23,3.23,0,0,1-1,.77c-1.2.84-1.82,1.55-1.92,1.48s.14-.31.23-.45c.81-1.14,2.65-3.35,3-3.1S189.11,284.33,188.76,284.8Z"/><polygon class="cls-28" points="184.81 285.88 185.38 288.31 187.32 287.96 187.07 285.88 184.81 285.88"/><path class="cls-28" d="M159.56,280.74c.6.17,1.49-.54,1.68-1.37a2,2,0,0,0-.35-1.49c-.32-.46-.54-.38-1-.81-.87-.88-.85-2.07-1.16-2.06-.08,0-.18.08-.3.41a.31.31,0,0,0-.23,0c-.15.1-.1.42-.09.59a23.33,23.33,0,0,0,.52,2.87C159.07,280.05,159.28,280.65,159.56,280.74Z"/><path class="cls-28" d="M161,276.41a1.82,1.82,0,0,1,.33,1c0,.54.15,2.25-.36,2.38-.25.07-.54-.26-.65-.45-.23-.35.12-.81,0-1.26,0-.1-.06-.16-.09-.26-.08-.26-.12-.39-.07-.44s.33.13.49,0,0-1.11.12-1.18S161,276.34,161,276.41Z"/><path class="cls-28" d="M157.91,277.29a3.36,3.36,0,0,0,.47,1.1c.69,1.3,1,2.22,1,2.18s0-.34,0-.51c-.2-1.38-.83-4.18-1.26-4.11C157.93,276,157.82,276.72,157.91,277.29Z"/><polygon class="cls-28" points="159.02 279.84 158.36 281.68 160.46 282 161.24 279.36 159.02 279.84"/><path class="cls-18" d="M165.75,317.67a39.92,39.92,0,0,0-.76,4.21,56.28,56.28,0,0,0-.16,9.8c.07,2.11.19,4.79.37,8-.08,1.28-.15,2.61-.2,4a138.39,138.39,0,0,0,.25,14.83h2.94q.39-6.57,1.09-13.47c.17-1.68.36-3.34.55-5,.12-1.05.33-2.73.62-4.79,1.33-9.46,2.22-11.92.76-14.27C170.62,320,169.23,318.47,165.75,317.67Z"/><path class="cls-29" d="M176.1,318.65a102.78,102.78,0,0,1,5.4,39.48l-3-.47c-.35-1.66-.79-3.73-1.29-6.13a56.93,56.93,0,0,1-1.28-7.11,30,30,0,0,1,.09-5.84l-2.88-3.75c-4.19-5.61-6.29-8.42-6.59-11.08a9.6,9.6,0,0,1,1-5.5,8.78,8.78,0,0,1,1.4-1.91,13,13,0,0,0,7.15,2.34Z"/><path class="cls-11" d="M181.9,356a21.18,21.18,0,0,0,.09,3.38h0a3.56,3.56,0,0,0,2.45,3l2.52.82-.06.45-4.19.3c-.35-.13-1.37-.48-1.56-.18a.59.59,0,0,0,0,.41H180a.82.82,0,0,1-.81-.7c-.28-1.83-1-6.77-1-7.45Z"/><path class="cls-11" d="M168.41,356.79a25.91,25.91,0,0,0-.22,2.59,3.93,3.93,0,0,0,2.21,3.74l1.71.81-.11.41-3.83-.24c-.31-.17-1.18-.61-1.39-.36a.57.57,0,0,0,0,.38c-.53-.05-1.08-.13-1.64-.23l-.2-.26V363c.09-2.16,0-5.85.14-6.61Z"/><path class="cls-30" d="M176.38,303.22a84.34,84.34,0,0,1-8.83-1l-.45-.2-.22-.11a13.41,13.41,0,0,1-7-17.64,13.15,13.15,0,0,1,1.46-2.55l-3.24-.54a18.17,18.17,0,0,0-2.41,12.18,19.55,19.55,0,0,0,5.66,10.28,23,23,0,0,0,4,3.31,19.45,19.45,0,0,1,.22,11.38l10.55.34c-1.33-1.56-1.49-2.73-1.38-3.52.22-1.75,1.91-2.53,2-4.62a4.43,4.43,0,0,0-.36-2,16.24,16.24,0,0,0,10.07-6.2c5.07-7,1.78-15.27,1.58-15.77l-3.26,1.78a15,15,0,0,1,1,5.54C185.34,299,180.9,303.31,176.38,303.22Z"/><path class="cls-28" d="M172.69,295.27a2,2,0,0,1-.38.2,3,3,0,0,0-1,.69c-.47.58.13,1.27-.05,2.55a3.85,3.85,0,0,0,0,1,4,4,0,0,0,.07.48,8.84,8.84,0,0,1-.34,3.11l.51-.29,1.44-1.07c1-1.1,1.18-1.29,1-1.84s-.49-1.82-.47-1.91c.28-.47.75-.67.25-1-.28-.19-.5-.34-.57-.37C172.91,296.72,172.68,296.36,172.69,295.27Z"/><path class="cls-7" d="M171.33,296.12a16.6,16.6,0,0,1,1,6.91v.23a4.9,4.9,0,0,1-5.28,4.48,4.6,4.6,0,0,1-.84-.14l-.31-.1h-.05a3.18,3.18,0,0,1-1.93-4.06,2.83,2.83,0,0,1,.17-.4,11.74,11.74,0,0,0,1.06-3c.53-2.61-.07-4.17,1.22-5.5a5.9,5.9,0,0,1,3-1.41,3.07,3.07,0,0,1,1.75,0,3.15,3.15,0,0,1,1.18.79,3.49,3.49,0,0,1,.77,1.26,5.23,5.23,0,0,0-1.69,1Z"/><g class="cls-31"><circle class="cls-13" cx="270.79" cy="272.72" r="1.22"/><circle class="cls-13" cx="283.02" cy="272.72" r="1.22"/><circle class="cls-13" cx="295.26" cy="272.72" r="1.22"/><circle class="cls-13" cx="307.49" cy="272.72" r="1.22"/><circle class="cls-13" cx="319.73" cy="272.72" r="1.22"/><circle class="cls-13" cx="276.91" cy="278.84" r="1.22"/><circle class="cls-13" cx="289.14" cy="278.84" r="1.22"/><circle class="cls-13" cx="301.37" cy="278.84" r="1.22"/><circle class="cls-13" cx="313.61" cy="278.84" r="1.22"/><circle class="cls-13" cx="270.79" cy="284.96" r="1.22"/><circle class="cls-13" cx="283.02" cy="284.96" r="1.22"/><circle class="cls-13" cx="295.26" cy="284.96" r="1.22"/><circle class="cls-13" cx="307.49" cy="284.96" r="1.22"/><circle class="cls-13" cx="319.73" cy="284.96" r="1.22"/><circle class="cls-13" cx="276.91" cy="291.08" r="1.22"/><circle class="cls-13" cx="289.14" cy="291.08" r="1.22"/><circle class="cls-13" cx="301.37" cy="291.08" r="1.22"/><circle class="cls-13" cx="313.61" cy="291.08" r="1.22"/><circle class="cls-13" cx="270.79" cy="297.19" r="1.22"/><circle class="cls-13" cx="283.02" cy="297.19" r="1.22"/><circle class="cls-13" cx="295.26" cy="297.19" r="1.22"/><circle class="cls-13" cx="307.49" cy="297.19" r="1.22"/><circle class="cls-13" cx="319.73" cy="297.19" r="1.22"/><circle class="cls-13" cx="276.91" cy="303.31" r="1.22"/><circle class="cls-13" cx="289.14" cy="303.31" r="1.22"/><circle class="cls-13" cx="301.37" cy="303.31" r="1.22"/><circle class="cls-13" cx="313.61" cy="303.31" r="1.22"/><circle class="cls-13" cx="270.79" cy="309.43" r="1.22"/><circle class="cls-13" cx="283.02" cy="309.43" r="1.22"/><circle class="cls-13" cx="295.26" cy="309.43" r="1.22"/><circle class="cls-13" cx="307.49" cy="309.43" r="1.22"/><circle class="cls-13" cx="319.73" cy="309.43" r="1.22"/><circle class="cls-13" cx="276.91" cy="315.54" r="1.22"/><circle class="cls-13" cx="289.14" cy="315.54" r="1.22"/><circle class="cls-13" cx="301.37" cy="315.54" r="1.22"/><circle class="cls-13" cx="313.61" cy="315.54" r="1.22"/><circle class="cls-13" cx="270.79" cy="321.66" r="1.22"/><circle class="cls-13" cx="283.02" cy="321.66" r="1.22"/><circle class="cls-13" cx="295.26" cy="321.66" r="1.22"/><circle class="cls-13" cx="307.49" cy="321.66" r="1.22"/><circle class="cls-13" cx="319.73" cy="321.66" r="1.22"/></g><rect class="cls-5" x="94.39" y="271.5" width="51.38" height="51.38"/><g class="cls-32"><rect class="cls-13" x="94.39" y="271.5" width="25.69" height="25.69" transform="translate(-177.11 391.58) rotate(-90)"/><rect class="cls-13" x="120.08" y="297.19" width="25.69" height="25.69" transform="translate(-177.11 442.96) rotate(-90)"/></g></svg>